<svg width="32" height="32" viewBox="0 0 32 32" fill="none" xmlns="http://www.w3.org/2000/svg">
<path fill-rule="evenodd" clip-rule="evenodd" d="M16.7998 21.9467C18.2401 21.7529 19.5611 21.043 20.5174 19.9488C21.4738 18.8547 22.0005 17.4506 21.9998 15.9974V14H20.3998V15.9974C20.3998 17.1643 19.9363 18.2835 19.1111 19.1086C18.2859 19.9338 17.1668 20.3974 15.9998 20.3974C14.8329 20.3974 13.7137 19.9338 12.8886 19.1086C12.0634 18.2835 11.5998 17.1643 11.5998 15.9974V14H9.99984V15.9974C9.99913 17.4506 10.5259 18.8547 11.4822 19.9488C12.4386 21.043 13.7596 21.7529 15.1998 21.9467V24H16.7998V21.9467ZM15.9998 29.3334C8.63584 29.3334 2.6665 23.364 2.6665 16C2.6665 8.63602 8.63584 2.66669 15.9998 2.66669C23.3638 2.66669 29.3332 8.63602 29.3332 16C29.3332 23.364 23.3638 29.3334 15.9998 29.3334ZM15.9998 8.66669C15.2926 8.66669 14.6143 8.94764 14.1142 9.44774C13.6141 9.94783 13.3332 10.6261 13.3332 11.3334V16C13.3332 16.7073 13.6141 17.3855 14.1142 17.8856C14.6143 18.3857 15.2926 18.6667 15.9998 18.6667C16.7071 18.6667 17.3854 18.3857 17.8855 17.8856C18.3856 17.3855 18.6665 16.7073 18.6665 16V11.3334C18.6665 10.6261 18.3856 9.94783 17.8855 9.44774C17.3854 8.94764 16.7071 8.66669 15.9998 8.66669Z" fill="#53B175"/>
</svg>
