<svg width="37" height="37" viewBox="0 0 37 37" fill="none" xmlns="http://www.w3.org/2000/svg">
<path d="M4.625 15.1917C4.625 13.6131 5.90475 12.3333 7.48341 12.3333C8.56609 12.3333 9.55585 11.7216 10.04 10.7532L11.3056 8.22222C11.7668 7.29979 11.9974 6.83858 12.3887 6.55235C12.4726 6.491 12.5611 6.43628 12.6535 6.38869C13.0846 6.16666 13.6002 6.16666 14.6315 6.16666H22.3685C23.3998 6.16666 23.9154 6.16666 24.3465 6.38869C24.4389 6.43628 24.5274 6.491 24.6113 6.55235C25.0026 6.83858 25.2332 7.29979 25.6944 8.22222L26.96 10.7532C27.4441 11.7216 28.4339 12.3333 29.5166 12.3333C31.0952 12.3333 32.375 13.6131 32.375 15.1917V24.8333C32.375 27.6618 32.375 29.076 31.4963 29.9547C30.6176 30.8333 29.2034 30.8333 26.375 30.8333H10.625C7.79657 30.8333 6.38236 30.8333 5.50368 29.9547C4.625 29.076 4.625 27.6618 4.625 24.8333V15.1917Z" stroke="white" stroke-width="2"/>
<circle cx="18.5002" cy="20.0417" r="5.16667" stroke="white" stroke-width="2"/>
</svg>
