<svg width="26" height="26" viewBox="0 0 26 26" fill="none" xmlns="http://www.w3.org/2000/svg">
<path d="M6.49992 20.5834H9.74992V15.1667C9.74992 14.8598 9.85392 14.6027 10.0619 14.3954C10.2699 14.1881 10.527 14.0841 10.8333 14.0834H15.1666C15.4735 14.0834 15.731 14.1874 15.939 14.3954C16.147 14.6034 16.2506 14.8605 16.2499 15.1667V20.5834H19.4999V10.8334L12.9999 5.95841L6.49992 10.8334V20.5834ZM4.33325 20.5834V10.8334C4.33325 10.4904 4.41017 10.1654 4.564 9.85842C4.71784 9.55147 4.92981 9.29869 5.19992 9.10008L11.6999 4.22508C12.0791 3.93619 12.5124 3.79175 12.9999 3.79175C13.4874 3.79175 13.9208 3.93619 14.2999 4.22508L20.7999 9.10008C21.0708 9.29869 21.2831 9.55147 21.4369 9.85842C21.5908 10.1654 21.6673 10.4904 21.6666 10.8334V20.5834C21.6666 21.1792 21.4543 21.6895 21.0296 22.1142C20.6049 22.5388 20.095 22.7508 19.4999 22.7501H15.1666C14.8596 22.7501 14.6025 22.6461 14.3953 22.4381C14.188 22.2301 14.084 21.973 14.0833 21.6667V16.2501H11.9166V21.6667C11.9166 21.9737 11.8126 22.2312 11.6046 22.4392C11.3966 22.6472 11.1395 22.7508 10.8333 22.7501H6.49992C5.90409 22.7501 5.3942 22.5381 4.97025 22.1142C4.54631 21.6902 4.33397 21.18 4.33325 20.5834Z" fill="black"/>
</svg>
