<svg width="22" height="22" viewBox="0 0 22 22" fill="none" xmlns="http://www.w3.org/2000/svg">
<path d="M5.47463 16.4239L8.9784 8.9784L16.4239 5.47463L12.9201 12.9201L5.47463 16.4239ZM10.9493 9.96383C10.6879 9.96383 10.4373 10.0677 10.2525 10.2525C10.0677 10.4373 9.96383 10.6879 9.96383 10.9493C9.96383 11.2106 10.0677 11.4613 10.2525 11.6461C10.4373 11.8309 10.6879 11.9347 10.9493 11.9347C11.2106 11.9347 11.4613 11.8309 11.6461 11.6461C11.8309 11.4613 11.9347 11.2106 11.9347 10.9493C11.9347 10.6879 11.8309 10.4373 11.6461 10.2525C11.4613 10.0677 11.2106 9.96383 10.9493 9.96383ZM10.9493 0C12.3871 0 13.8109 0.283211 15.1394 0.833463C16.4678 1.38372 17.6748 2.19023 18.6916 3.20697C19.7083 4.2237 20.5148 5.43074 21.0651 6.75916C21.6153 8.08759 21.8985 9.51139 21.8985 10.9493C21.8985 13.8532 20.745 16.6382 18.6916 18.6916C16.6382 20.745 13.8532 21.8985 10.9493 21.8985C9.51139 21.8985 8.08759 21.6153 6.75916 21.0651C5.43074 20.5148 4.2237 19.7083 3.20697 18.6916C1.15358 16.6382 0 13.8532 0 10.9493C0 8.04534 1.15358 5.26035 3.20697 3.20697C5.26035 1.15358 8.04534 0 10.9493 0ZM10.9493 2.18985C8.62613 2.18985 6.39814 3.11272 4.75543 4.75543C3.11272 6.39814 2.18985 8.62613 2.18985 10.9493C2.18985 13.2724 3.11272 15.5004 4.75543 17.1431C6.39814 18.7858 8.62613 19.7087 10.9493 19.7087C13.2724 19.7087 15.5004 18.7858 17.1431 17.1431C18.7858 15.5004 19.7087 13.2724 19.7087 10.9493C19.7087 8.62613 18.7858 6.39814 17.1431 4.75543C15.5004 3.11272 13.2724 2.18985 10.9493 2.18985Z" fill="black"/>
</svg>
