<svg width="27" height="27" viewBox="0 0 27 27" fill="none" xmlns="http://www.w3.org/2000/svg">
<path d="M4.37939 19.7087C4.37939 18.5472 4.84083 17.4332 5.66218 16.6118C6.48354 15.7904 7.59753 15.329 8.7591 15.329H17.5185C18.6801 15.329 19.7941 15.7904 20.6154 16.6118C21.4368 17.4332 21.8982 18.5472 21.8982 19.7087C21.8982 20.2895 21.6675 20.8465 21.2568 21.2572C20.8462 21.6679 20.2892 21.8986 19.7084 21.8986H6.56925C5.98846 21.8986 5.43146 21.6679 5.02079 21.2572C4.61011 20.8465 4.37939 20.2895 4.37939 19.7087Z" stroke="black" stroke-width="2.41667" stroke-linejoin="round"/>
<path d="M13.1388 10.9493C14.9529 10.9493 16.4236 9.47868 16.4236 7.66454C16.4236 5.85041 14.9529 4.37976 13.1388 4.37976C11.3247 4.37976 9.854 5.85041 9.854 7.66454C9.854 9.47868 11.3247 10.9493 13.1388 10.9493Z" stroke="black" stroke-width="2.41667"/>
</svg>
